<svg xmlns="http://www.w3.org/2000/svg" width="22.635" height="25" viewBox="0 0 22.635 25">
    <defs>
        <style>
            .cls-1,.cls-2,.cls-3{fill:#fff}.cls-1,.cls-3{stroke-linecap:round;stroke-linejoin:round}.cls-3{stroke:#000}.cls-4{fill:none}.cls-5,.cls-6{stroke:none}
        </style>
    </defs>
    <g id="그룹_410" data-name="그룹 410" transform="translate(-242 -68)">
        <g id="그룹_411" data-name="그룹 411">
            <g id="패스_907" class="cls-1" data-name="패스 907">
                <path d="M264.136 87.452h-9.22l-5.78-8.387v-9.188h10.504l4.496 4.087v13.488z" class="cls-5"/>
                <path d="M263.636 86.952V74.185l-4.19-3.808h-9.81v8.533l5.543 8.042h8.457m1 1h-9.982l-6.018-8.73v-9.845h11.198l4.802 4.365v14.21z" class="cls-6"/>
            </g>
            <path id="패스_908" d="M258.667 69.564V74.3h5.113z" data-name="패스 908"/>
            <path id="사각형_130" d="M0 0h8v11H0z" class="cls-2" data-name="사각형 130" transform="translate(247.548 77)"/>
            <g id="그룹_410-2" data-name="그룹 410">
                <path id="사각형_131" d="M0 0h5.943v9.642A2.244 2.244 0 0 1 3.7 11.885H2.244A2.244 2.244 0 0 1 0 9.642V0z" data-name="사각형 131" transform="rotate(40.38 17.148 380.276)"/>
                <path id="패스_909" d="M255.995 82.216l-4.527-3.85 5.151-1.471z" data-name="패스 909"/>
            </g>
        </g>
        <path id="사각형_132" d="M0 0h22.636v25H0z" class="cls-4" data-name="사각형 132" transform="translate(242 68)"/>
    </g>
</svg>
