<svg xmlns="http://www.w3.org/2000/svg" id="그룹_406" width="30.145" height="33.294" data-name="그룹 406" viewBox="0 0 30.145 33.294">
    <defs>
        <style>
            .cls-1,.cls-4{fill:none}.cls-1,.cls-2{stroke-linecap:square;stroke-linejoin:round}.cls-2{fill:#fff;stroke:#55aaec}.cls-3,.cls-6{fill:#55aaec}.cls-5,.cls-6{stroke:none}
        </style>
    </defs>
    <g id="그룹_406-2" data-name="그룹 406" transform="translate(4.842 1.129)">
        <g id="패스_902" class="cls-1" data-name="패스 902">
            <path d="M162.3 97.56h-21.429A3.82 3.82 0 0 1 137 93.793V71l11.26 1.325 12.111 1.168 1.932 1.73z" class="cls-5" transform="translate(-137 -68.134)"/>
            <path d="M161.304 96.56V75.67l-1.355-1.213-11.785-1.136a1.01 1.01 0 0 1-.02-.003L138 72.125v21.668c0 1.526 1.288 2.767 2.871 2.767h20.433m1 1H140.87c-2.137 0-3.871-1.686-3.871-3.767V71l11.26 1.325 12.111 1.168 1.933 1.73V97.56z" class="cls-6" transform="translate(-137 -68.134)"/>
        </g>
        <path id="패스_903" d="M161.5 75.749h-20.127a3.673 3.673 0 0 1-3.859-3.451 3.673 3.673 0 0 1 3.859-3.451H161.5" class="cls-2" data-name="패스 903" transform="translate(-136.829 -68.848)"/>
        <path id="패스_904" d="M141.054 88.612v-14.5h7.807v14.5l-3.9-2.788z" class="cls-3" data-name="패스 904" transform="translate(-135.655 -67.101)"/>
        <path id="선_98" d="M0 0h20.757" class="cls-2" data-name="선 98" transform="translate(3.881 3.437)"/>
    </g>
    <path id="사각형_127" d="M0 0h30.145v33.294H0z" class="cls-4" data-name="사각형 127"/>
</svg>
