<svg xmlns="http://www.w3.org/2000/svg" width="52" height="52" viewBox="0 0 52 52">
    <defs>
        <style>
            .cls-1{fill:#dcdcdc}.cls-2{fill:#fff;stroke:#fff}
        </style>
    </defs>
    <g id="그룹_583" data-name="그룹 583" transform="translate(0 .265)">
        <circle id="타원_54" cx="26" cy="26" r="26" class="cls-1" data-name="타원 54" transform="translate(0 -.265)"/>
        <g id="Layer_3" data-name="Layer 3" transform="translate(13.356 16.522)">
            <g id="그룹_562" data-name="그룹 562">
                <g id="그룹_560" data-name="그룹 560">
                    <path id="패스_938" d="M715.837 830.377a93.855 93.855 0 0 1-11.229-.679.547.547 0 0 1-.468-.417 34.32 34.32 0 0 1 0-16.112.549.549 0 0 1 .468-.418 93.8 93.8 0 0 1 22.458 0 .551.551 0 0 1 .469.418 34.322 34.322 0 0 1 0 16.112.548.548 0 0 1-.469.417 93.845 93.845 0 0 1-11.229.679zm-10.716-1.725a92.662 92.662 0 0 0 21.431 0 33.157 33.157 0 0 0 0-14.855 92.682 92.682 0 0 0-21.431 0 33.189 33.189 0 0 0 0 14.855z" class="cls-2" data-name="패스 938" transform="translate(-703.181 -812.076)"/>
                </g>
                <g id="그룹_561" data-name="그룹 561" transform="translate(9.416 4.313)">
                    <path id="패스_939" d="M712.738 825.68a1.022 1.022 0 0 1-.992-1.115v-7.457a1.027 1.027 0 0 1 1.619-.935l6.458 3.73a1.023 1.023 0 0 1 0 1.867l-6.458 3.729a1.255 1.255 0 0 1-.628.181zm.119-8.531l-.011 7.368 6.386-3.675-6.375-3.694z" class="cls-2" data-name="패스 939" transform="translate(-711.746 -816)"/>
                </g>
            </g>
        </g>
    </g>
</svg>
